<svg width="68" height="52" viewBox="0 0 68 52" fill="none" xmlns="http://www.w3.org/2000/svg">
<path d="M10.3528 1.03143C12.8614 0.0605928 15.6248 -0.226944 18.283 0.17752C22.097 0.748778 25.6651 2.79874 28.0658 5.8202C28.6797 5.31617 29.3592 4.8974 30.0447 4.49944C31.2698 3.96371 32.6141 3.64278 33.9561 3.72755C34.3475 3.77621 34.74 3.81119 35.1308 3.86094C36.8741 4.19713 38.5277 5.08491 39.7179 6.41006C41.5197 4.04409 44.019 2.21988 46.8212 1.22389C49.7955 0.156259 53.0979 0.0201316 56.1464 0.855432C58.7113 1.54642 61.092 2.9109 62.9873 4.7739C64.9591 6.7184 66.4285 9.17834 67.1479 11.857C67.6252 13.5866 67.7957 15.3999 67.6618 17.1892C67.5836 18.3984 67.3114 19.5835 66.9889 20.7485C66.6401 21.8014 66.2355 22.8466 65.6408 23.7879C65.1111 24.762 64.4469 25.6586 63.7084 26.4829C62.4095 28.1579 61.876 30.4009 62.2882 32.4804C62.3986 32.9587 62.2936 33.4934 61.9974 33.8864C61.7033 34.2571 61.2079 34.3292 60.7701 34.3997C59.5516 34.6348 58.2718 34.5533 57.0921 34.1679C55.2461 33.5622 53.6739 32.1977 52.8079 30.4589C51.4423 30.4425 50.0517 30.1599 48.8845 29.4251C49.1956 30.3167 49.4235 31.2384 49.5859 32.1688C49.6673 32.628 49.3809 33.0281 49.1393 33.3879C48.8632 33.6962 48.5254 33.9427 48.2181 34.2205C48.6385 35.0393 48.891 35.9462 48.9118 36.8679C48.9572 38.333 48.4488 39.8112 47.4981 40.928C46.8514 41.701 46.0068 42.3012 45.0731 42.6773C45.423 43.8669 45.769 45.058 46.1233 46.247C46.2452 46.6297 46.2233 47.0534 46.0932 47.4311C45.9697 47.7777 45.6455 47.9799 45.3694 48.1937C43.3408 49.7424 40.9666 50.8122 38.4919 51.4168C37.3679 51.6961 36.2194 51.8722 35.0632 51.9317C34.1733 52.0006 33.2778 52.0301 32.3868 51.9591C28.4611 51.7995 24.5526 50.4727 21.444 48.0488C21.1046 47.7684 20.6803 47.5087 20.5699 47.0517C20.4464 46.6849 20.6011 46.3176 20.7312 45.9781C21.0739 44.859 21.3883 43.7324 21.7266 42.6123C20.3583 42.0973 19.1907 41.0614 18.5188 39.7625C17.5982 38.0362 17.6108 35.8676 18.5275 34.1423C18.2198 33.864 17.8803 33.6169 17.6042 33.3065C17.3631 32.9468 17.0778 32.5466 17.1609 32.088C17.2997 31.298 17.4806 30.5136 17.7316 29.751C16.9154 30.0325 16.0506 30.1227 15.1923 30.1451C14.0744 32.4083 11.7298 34.0259 9.20255 34.1899C8.37105 34.2817 7.53469 34.1609 6.72122 33.9898C6.3473 33.9127 5.99854 33.6744 5.84168 33.3174C5.69681 32.9774 5.61536 32.5952 5.70064 32.2285C6.16584 29.9538 5.51368 27.4566 3.92565 25.7511C3.33744 25.042 2.80065 24.2877 2.36053 23.4769C1.77779 22.5558 1.37982 21.5341 1.03327 20.5052C0.8474 19.9061 0.728231 19.2895 0.57954 18.6816C0.0356097 15.8838 0.272865 12.9406 1.25795 10.2671C1.96478 8.3264 3.07612 6.54263 4.46905 5.02242C6.08715 3.26162 8.12021 1.88624 10.3528 1.03178L10.3528 1.03143ZM10.7081 3.42291C9.06048 4.13247 7.55062 5.17384 6.32225 6.4837C5.74498 7.07027 5.27046 7.74757 4.79656 8.41778C3.56875 10.3103 2.82635 12.5156 2.67494 14.7678C2.44097 17.9817 3.44464 21.2567 5.38966 23.8187C6.17962 24.6846 6.86951 25.6533 7.34012 26.7308C8.0557 28.3248 8.32851 30.1118 8.13658 31.8475C9.69457 32.0082 11.3018 31.3752 12.3366 30.2004C13.1227 29.323 13.589 28.1652 13.6184 26.9871C13.6709 25.6812 13.1789 24.3724 12.3032 23.4065C12.0151 23.0883 11.9342 22.6078 12.0916 22.2099C12.2939 21.6621 12.9422 21.3287 13.5042 21.5036C13.9612 21.6216 14.2313 22.0409 14.5057 22.3897C15.6531 23.9023 16.1457 25.872 15.9178 27.7502C16.5612 27.6901 17.1724 27.4605 17.7381 27.1571C19.5055 26.2431 20.5677 24.1839 20.3435 22.2142C20.2462 21.1405 19.7619 20.1314 19.055 19.3257C18.6292 18.8845 18.6571 18.1116 19.1053 17.6955C19.5394 17.2521 20.3205 17.2576 20.7524 17.7026C21.7878 18.7785 22.4291 20.2079 22.6466 21.6784C24.1833 20.1844 26.0119 19.0036 27.9913 18.1875C26.359 16.7339 25.3755 14.5905 25.2816 12.4109C25.2171 10.7544 25.6363 9.07404 26.5214 7.66747C24.6545 5.13042 21.8403 3.31875 18.7621 2.65731C16.0851 2.06309 13.2244 2.3326 10.7081 3.42264L10.7081 3.42291ZM48.0534 3.28816C45.4863 4.09779 43.1838 5.71972 41.5613 7.86971C41.4181 8.06541 41.2645 8.25511 41.0912 8.42512C41.6286 9.54251 41.9188 10.7807 41.9177 12.0216C41.9429 14.4329 40.837 16.812 39.009 18.3765C41.4242 19.3977 43.5714 21.0115 45.2775 22.998C45.2813 21.4854 45.7761 19.9853 46.6365 18.7466C46.9815 18.3213 47.3089 17.7653 47.9048 17.6883C48.6411 17.5527 49.3632 18.259 49.2414 18.9981C49.2053 19.4863 48.7669 19.7733 48.54 20.1685C47.3056 21.856 47.3379 24.3362 48.5941 26.0024C49.3873 27.1466 50.7103 27.8911 52.0823 28.0639C51.8178 25.9248 52.5082 23.6692 54 22.102C54.3597 21.7407 54.9627 21.6679 55.4 21.9314C55.8598 22.1867 56.0959 22.7722 55.9423 23.2763C55.8598 23.5961 55.5963 23.8131 55.4077 24.0683C54.7151 24.99 54.3346 26.1473 54.3816 27.3019C54.4171 28.7401 55.1092 30.1445 56.2249 31.0509C57.2297 31.8835 58.5657 32.2896 59.8635 32.1617C59.5754 29.6438 60.3063 27.0307 61.8605 25.0294C62.2125 24.5494 62.6514 24.1405 62.9751 23.6397C63.7333 22.5153 64.333 21.2814 64.7463 19.9902C65.5034 17.5746 65.5624 14.944 64.8895 12.502C63.8443 8.5961 60.9295 5.22817 57.1821 3.69096C54.3165 2.47357 51.0158 2.3347 48.0536 3.28807L48.0534 3.28816ZM32.8241 6.12363C32.0938 6.23296 31.3634 6.43851 30.7348 6.83593C30.1498 7.19946 29.5349 7.55205 29.1095 8.10912C28.0359 9.31233 27.5034 10.966 27.6467 12.5694C27.7527 13.8108 28.2683 15.0113 29.0795 15.9548C29.9728 16.9629 31.1995 17.6823 32.5317 17.9108C33.7693 18.1234 35.0868 17.9786 36.2135 17.4068C37.5304 16.7825 38.5865 15.6443 39.1305 14.2941C39.617 13.1067 39.7017 11.7603 39.3727 10.5204C39.0523 9.31559 38.3438 8.21951 37.3883 7.41975C36.9394 7.06388 36.4322 6.78945 35.9188 6.54123C35.259 6.22745 34.5232 6.15256 33.806 6.07547C33.4775 6.04978 33.1495 6.08477 32.8242 6.12358L32.8241 6.12363ZM30.8447 19.8931C28.259 28.7089 25.6657 37.5223 23.0789 46.3373C25.459 48.1287 28.3476 49.1996 31.2998 49.5271C32.368 49.6085 33.4422 49.708 34.5126 49.6124C37.8007 49.485 41.0714 48.4196 43.7406 46.4817C41.157 37.6596 38.5582 28.843 35.9736 20.0218C34.3041 20.5001 32.4876 20.4635 30.8454 19.8933L30.8447 19.8931ZM23.4086 24.2688C21.4931 26.4352 20.1838 29.1149 19.5803 31.9389C20.8873 33.1142 22.4148 34.0468 24.0608 34.6684C25.4252 30.0075 26.7968 25.3487 28.1651 20.6888C26.3442 21.5193 24.7408 22.7831 23.4086 24.2689L23.4086 24.2688ZM38.6499 20.8004C40.0111 25.4431 41.3762 30.0856 42.7389 34.7274C44.3647 34.1064 45.874 33.1809 47.168 32.0176C46.6946 29.7927 45.7772 27.6651 44.4812 25.796C42.9948 23.6837 41.0011 21.8928 38.6499 20.8006V20.8004ZM20.4761 35.5223C20.0748 36.4565 20.0841 37.5559 20.5072 38.4814C20.874 39.3118 21.5748 39.9688 22.3888 40.3564C22.7195 39.2128 23.0634 38.0736 23.3925 36.9289C22.38 36.5506 21.3966 36.0909 20.476 35.5223H20.4761ZM43.4038 36.9901C43.7345 38.1315 44.0751 39.2702 44.408 40.4105C45.2012 40.0213 45.8807 39.3719 46.2404 38.559C46.6636 37.6335 46.6729 36.5347 46.2716 35.601C45.3664 36.1602 44.3987 36.6134 43.4038 36.9901H43.4038Z" fill="#60C742"/>
<path d="M10.3528 1.03143C12.8614 0.0605928 15.6248 -0.226944 18.283 0.17752C22.097 0.748778 25.6651 2.79874 28.0658 5.8202C28.6797 5.31617 29.3592 4.8974 30.0447 4.49944C31.2698 3.96371 32.6141 3.64278 33.9561 3.72755C34.3475 3.77621 34.74 3.81119 35.1308 3.86094C36.8741 4.19713 38.5277 5.08491 39.7179 6.41006C41.5197 4.04409 44.019 2.21988 46.8212 1.22389C49.7955 0.156259 53.0979 0.0201316 56.1464 0.855432C58.7113 1.54642 61.092 2.9109 62.9873 4.7739C64.9591 6.7184 66.4285 9.17834 67.1479 11.857C67.6252 13.5866 67.7957 15.3999 67.6618 17.1892C67.5836 18.3984 67.3114 19.5835 66.9889 20.7485C66.6401 21.8014 66.2355 22.8466 65.6408 23.7879C65.1111 24.762 64.4469 25.6586 63.7084 26.4829C62.4095 28.1579 61.876 30.4009 62.2882 32.4804C62.3986 32.9587 62.2936 33.4934 61.9974 33.8864C61.7033 34.2571 61.2079 34.3292 60.7701 34.3997C59.5516 34.6348 58.2718 34.5533 57.0921 34.1679C55.2461 33.5622 53.6739 32.1977 52.8079 30.4589C51.4423 30.4425 50.0517 30.1599 48.8845 29.4251C49.1956 30.3167 49.4235 31.2384 49.5859 32.1688C49.6673 32.628 49.3809 33.0281 49.1393 33.3879C48.8632 33.6962 48.5254 33.9427 48.2181 34.2205C48.6385 35.0393 48.891 35.9462 48.9118 36.8679C48.9572 38.333 48.4488 39.8112 47.4981 40.928C46.8514 41.701 46.0068 42.3012 45.0731 42.6773C45.423 43.8669 45.769 45.058 46.1233 46.247C46.2452 46.6297 46.2233 47.0534 46.0932 47.4311C45.9697 47.7777 45.6455 47.9799 45.3694 48.1937C43.3408 49.7424 40.9666 50.8122 38.4919 51.4168C37.3679 51.6961 36.2194 51.8722 35.0632 51.9317C34.1733 52.0006 33.2778 52.0301 32.3868 51.9591C28.4611 51.7995 24.5526 50.4727 21.444 48.0488C21.1046 47.7684 20.6803 47.5087 20.5699 47.0517C20.4464 46.6849 20.6011 46.3176 20.7312 45.9781C21.0739 44.859 21.3883 43.7324 21.7266 42.6123C20.3583 42.0973 19.1907 41.0614 18.5188 39.7625C17.5982 38.0362 17.6108 35.8676 18.5275 34.1423C18.2198 33.864 17.8803 33.6169 17.6042 33.3065C17.3631 32.9468 17.0778 32.5466 17.1609 32.088C17.2997 31.298 17.4806 30.5136 17.7316 29.751C16.9154 30.0325 16.0506 30.1227 15.1923 30.1451C14.0744 32.4083 11.7298 34.0259 9.20255 34.1899C8.37105 34.2817 7.53469 34.1609 6.72122 33.9898C6.3473 33.9127 5.99854 33.6744 5.84168 33.3174C5.69681 32.9774 5.61536 32.5952 5.70064 32.2285C6.16584 29.9538 5.51368 27.4566 3.92565 25.7511C3.33744 25.042 2.80065 24.2877 2.36053 23.4769C1.77779 22.5558 1.37982 21.5341 1.03327 20.5052C0.8474 19.9061 0.728231 19.2895 0.57954 18.6816C0.0356097 15.8838 0.272865 12.9406 1.25795 10.2671C1.96478 8.3264 3.07612 6.54263 4.46905 5.02242C6.08715 3.26162 8.12021 1.88624 10.3528 1.03178L10.3528 1.03143ZM10.7081 3.42291C9.06048 4.13247 7.55062 5.17384 6.32225 6.4837C5.74498 7.07027 5.27046 7.74757 4.79656 8.41778C3.56875 10.3103 2.82635 12.5156 2.67494 14.7678C2.44097 17.9817 3.44464 21.2567 5.38966 23.8187C6.17962 24.6846 6.86951 25.6533 7.34012 26.7308C8.0557 28.3248 8.32851 30.1118 8.13658 31.8475C9.69457 32.0082 11.3018 31.3752 12.3366 30.2004C13.1227 29.323 13.589 28.1652 13.6184 26.9871C13.6709 25.6812 13.1789 24.3724 12.3032 23.4065C12.0151 23.0883 11.9342 22.6078 12.0916 22.2099C12.2939 21.6621 12.9422 21.3287 13.5042 21.5036C13.9612 21.6216 14.2313 22.0409 14.5057 22.3897C15.6531 23.9023 16.1457 25.872 15.9178 27.7502C16.5612 27.6901 17.1724 27.4605 17.7381 27.1571C19.5055 26.2431 20.5677 24.1839 20.3435 22.2142C20.2462 21.1405 19.7619 20.1314 19.055 19.3257C18.6292 18.8845 18.6571 18.1116 19.1053 17.6955C19.5394 17.2521 20.3205 17.2576 20.7524 17.7026C21.7878 18.7785 22.4291 20.2079 22.6466 21.6784C24.1833 20.1844 26.0119 19.0036 27.9913 18.1875C26.359 16.7339 25.3755 14.5905 25.2816 12.4109C25.2171 10.7544 25.6363 9.07404 26.5214 7.66747C24.6545 5.13042 21.8403 3.31875 18.7621 2.65731C16.0851 2.06309 13.2244 2.3326 10.7081 3.42264L10.7081 3.42291ZM48.0534 3.28816C45.4863 4.09779 43.1838 5.71972 41.5613 7.86971C41.4181 8.06541 41.2645 8.25511 41.0912 8.42512C41.6286 9.54251 41.9188 10.7807 41.9177 12.0216C41.9429 14.4329 40.837 16.812 39.009 18.3765C41.4242 19.3977 43.5714 21.0115 45.2775 22.998C45.2813 21.4854 45.7761 19.9853 46.6365 18.7466C46.9815 18.3213 47.3089 17.7653 47.9048 17.6883C48.6411 17.5527 49.3632 18.259 49.2414 18.9981C49.2053 19.4863 48.7669 19.7733 48.54 20.1685C47.3056 21.856 47.3379 24.3362 48.5941 26.0024C49.3873 27.1466 50.7103 27.8911 52.0823 28.0639C51.8178 25.9248 52.5082 23.6692 54 22.102C54.3597 21.7407 54.9627 21.6679 55.4 21.9314C55.8598 22.1867 56.0959 22.7722 55.9423 23.2763C55.8598 23.5961 55.5963 23.8131 55.4077 24.0683C54.7151 24.99 54.3346 26.1473 54.3816 27.3019C54.4171 28.7401 55.1092 30.1445 56.2249 31.0509C57.2297 31.8835 58.5657 32.2896 59.8635 32.1617C59.5754 29.6438 60.3063 27.0307 61.8605 25.0294C62.2125 24.5494 62.6514 24.1405 62.9751 23.6397C63.7333 22.5153 64.333 21.2814 64.7463 19.9902C65.5034 17.5746 65.5624 14.944 64.8895 12.502C63.8443 8.5961 60.9295 5.22817 57.1821 3.69096C54.3165 2.47357 51.0158 2.3347 48.0536 3.28807L48.0534 3.28816ZM32.8241 6.12363C32.0938 6.23296 31.3634 6.43851 30.7348 6.83593C30.1498 7.19946 29.5349 7.55205 29.1095 8.10912C28.0359 9.31233 27.5034 10.966 27.6467 12.5694C27.7527 13.8108 28.2683 15.0113 29.0795 15.9548C29.9728 16.9629 31.1995 17.6823 32.5317 17.9108C33.7693 18.1234 35.0868 17.9786 36.2135 17.4068C37.5304 16.7825 38.5865 15.6443 39.1305 14.2941C39.617 13.1067 39.7017 11.7603 39.3727 10.5204C39.0523 9.31559 38.3438 8.21951 37.3883 7.41975C36.9394 7.06388 36.4322 6.78945 35.9188 6.54123C35.259 6.22745 34.5232 6.15256 33.806 6.07547C33.4775 6.04978 33.1495 6.08477 32.8242 6.12358L32.8241 6.12363ZM30.8447 19.8931C28.259 28.7089 25.6657 37.5223 23.0789 46.3373C25.459 48.1287 28.3476 49.1996 31.2998 49.5271C32.368 49.6085 33.4422 49.708 34.5126 49.6124C37.8007 49.485 41.0714 48.4196 43.7406 46.4817C41.157 37.6596 38.5582 28.843 35.9736 20.0218C34.3041 20.5001 32.4876 20.4635 30.8454 19.8933L30.8447 19.8931ZM23.4086 24.2688C21.4931 26.4352 20.1838 29.1149 19.5803 31.9389C20.8873 33.1142 22.4148 34.0468 24.0608 34.6684C25.4252 30.0075 26.7968 25.3487 28.1651 20.6888C26.3442 21.5193 24.7408 22.7831 23.4086 24.2689L23.4086 24.2688ZM38.6499 20.8004C40.0111 25.4431 41.3762 30.0856 42.7389 34.7274C44.3647 34.1064 45.874 33.1809 47.168 32.0176C46.6946 29.7927 45.7772 27.6651 44.4812 25.796C42.9948 23.6837 41.0011 21.8928 38.6499 20.8006V20.8004ZM20.4761 35.5223C20.0748 36.4565 20.0841 37.5559 20.5072 38.4814C20.874 39.3118 21.5748 39.9688 22.3888 40.3564C22.7195 39.2128 23.0634 38.0736 23.3925 36.9289C22.38 36.5506 21.3966 36.0909 20.476 35.5223H20.4761ZM43.4038 36.9901C43.7345 38.1315 44.0751 39.2702 44.408 40.4105C45.2012 40.0213 45.8807 39.3719 46.2404 38.559C46.6636 37.6335 46.6729 36.5347 46.2716 35.601C45.3664 36.1602 44.3987 36.6134 43.4038 36.9901H43.4038Z" fill="white" fill-opacity="0.5"/>
</svg>
