<svg width="17" height="17" viewBox="0 0 17 17" fill="none" xmlns="http://www.w3.org/2000/svg">
<path d="M12.5281 10.1211C12.3232 10.0174 11.3255 9.53055 11.139 9.46107C10.9525 9.39465 10.8171 9.35991 10.6812 9.56478C10.5484 9.76454 10.1571 10.2218 10.0375 10.3551C9.91796 10.4885 9.80045 10.4987 9.59865 10.4083C9.39378 10.3046 8.73933 10.0915 7.96226 9.39465C7.35532 8.85463 6.9512 8.18945 6.83114 7.98458C6.71159 7.78227 6.81786 7.66783 6.91901 7.56667C7.012 7.47369 7.12388 7.33268 7.22759 7.21007C7.32619 7.08745 7.35787 7.0052 7.42991 6.87237C7.49632 6.72881 7.46209 6.61692 7.41151 6.51576C7.36094 6.41461 6.95375 5.41172 6.78363 5.0122C6.62116 4.61575 6.45103 4.66633 6.32586 4.66633C6.20887 4.6556 6.07297 4.6556 5.93759 4.6556C5.8022 4.6556 5.58098 4.70618 5.39451 4.90032C5.20803 5.10519 4.6813 5.59462 4.6813 6.58473C4.6813 7.5774 5.41034 8.53788 5.5115 8.68144C5.61521 8.81427 6.94558 10.8578 8.9866 11.7361C9.47348 11.9409 9.85154 12.0636 10.1468 12.1647C10.6337 12.319 11.0782 12.2975 11.4292 12.247C11.8175 12.1831 12.6318 11.7545 12.8025 11.2758C12.9757 10.794 12.9757 10.395 12.9251 10.3046C12.8745 10.2116 12.7417 10.161 12.5368 10.0706L12.5281 10.1211ZM8.82669 15.1396H8.81596C7.6077 15.1396 6.41323 14.8122 5.36998 14.2001L5.12526 14.054L2.5708 14.7192L3.25744 12.2337L3.09242 11.9782C2.41776 10.9055 2.05985 9.66409 2.0599 8.39687C2.0599 4.68778 5.09614 1.66227 8.8318 1.66227C10.6414 1.66227 12.3391 2.36731 13.6163 3.64454C14.2464 4.26711 14.7462 5.00892 15.0865 5.8267C15.4268 6.64447 15.6009 7.52184 15.5986 8.4076C15.5935 12.1141 12.5598 15.1396 8.82924 15.1396H8.82669ZM14.5875 2.67333C13.0334 1.17232 10.9898 0.32373 8.81596 0.32373C4.33236 0.32373 0.68151 3.95874 0.678956 8.42599C0.678956 9.85241 1.0514 11.2441 1.76461 12.4759L0.609985 16.6723L4.92602 15.5468C6.12167 16.1915 7.45812 16.5305 8.81647 16.5339H8.81903C13.3052 16.5339 16.956 12.8989 16.9586 8.42855C16.9586 6.26543 16.1151 4.22951 14.5773 2.69939L14.5875 2.67333Z" fill="white"/>
</svg>
